<mxfile host="app.diagrams.net" agent="Mozilla/5.0 (X11; Linux x86_64; rv:140.0) Gecko/20100101 Firefox/140.0" version="28.0.7">
  <diagram name="Page-1" id="G5Spzuv6OrQ6fR7T8rBD">
    <mxGraphModel dx="2152" dy="986" grid="1" gridSize="10" guides="1" tooltips="1" connect="1" arrows="1" fold="1" page="1" pageScale="1" pageWidth="850" pageHeight="1100" math="0" shadow="0">
      <root>
        <mxCell id="0" />
        <mxCell id="1" parent="0" />
        <mxCell id="V9lEAtq_63Y-f6BwwbYo-69" style="edgeStyle=orthogonalEdgeStyle;rounded=0;orthogonalLoop=1;jettySize=auto;html=1;fontFamily=Roboto;fontSource=https%3A%2F%2Ffonts.googleapis.com%2Fcss%3Ffamily%3DRoboto;fontSize=12;fontColor=default;fontStyle=1;horizontal=1;endArrow=block;endFill=0;dashed=1;dashPattern=8 8;" edge="1" parent="1" source="V9lEAtq_63Y-f6BwwbYo-43" target="V9lEAtq_63Y-f6BwwbYo-52">
          <mxGeometry relative="1" as="geometry" />
        </mxCell>
        <mxCell id="V9lEAtq_63Y-f6BwwbYo-70" style="edgeStyle=orthogonalEdgeStyle;rounded=0;orthogonalLoop=1;jettySize=auto;html=1;fontFamily=Roboto;fontSource=https%3A%2F%2Ffonts.googleapis.com%2Fcss%3Ffamily%3DRoboto;fontSize=12;fontColor=default;fontStyle=1;horizontal=1;dashed=1;dashPattern=8 8;endArrow=open;endFill=0;" edge="1" parent="1" source="V9lEAtq_63Y-f6BwwbYo-43" target="V9lEAtq_63Y-f6BwwbYo-50">
          <mxGeometry relative="1" as="geometry" />
        </mxCell>
        <mxCell id="V9lEAtq_63Y-f6BwwbYo-77" style="edgeStyle=orthogonalEdgeStyle;rounded=0;orthogonalLoop=1;jettySize=auto;html=1;fontFamily=Roboto;fontSource=https%3A%2F%2Ffonts.googleapis.com%2Fcss%3Ffamily%3DRoboto;fontSize=12;fontColor=default;fontStyle=1;horizontal=1;endArrow=open;endFill=0;dashed=1;dashPattern=8 8;" edge="1" parent="1" source="V9lEAtq_63Y-f6BwwbYo-43" target="V9lEAtq_63Y-f6BwwbYo-45">
          <mxGeometry relative="1" as="geometry" />
        </mxCell>
        <mxCell id="V9lEAtq_63Y-f6BwwbYo-43" value="&lt;p style=&quot;margin:0px;margin-top:4px;text-align:center;&quot;&gt;&lt;b&gt;&lt;i&gt;&amp;lt;&amp;lt;Interface&amp;gt;&amp;gt;&lt;br&gt;&lt;/i&gt;EventHandler&lt;/b&gt;&lt;/p&gt;&lt;hr size=&quot;1&quot; style=&quot;border-style:solid;&quot;&gt;&lt;p style=&quot;margin:0px;margin-left:4px;&quot;&gt;&lt;br&gt;&lt;/p&gt;&lt;hr size=&quot;1&quot; style=&quot;border-style:solid;&quot;&gt;&lt;p style=&quot;margin:0px;margin-left:4px;&quot;&gt;&lt;span style=&quot;font-weight: normal;&quot;&gt;- applies_to(e : Event) : bool&lt;br&gt;+ handle(e : Event)&lt;/span&gt;&lt;/p&gt;" style="verticalAlign=top;align=left;overflow=fill;html=1;whiteSpace=wrap;rounded=1;fillStyle=solid;strokeColor=default;swimlaneFillColor=none;fontFamily=Roboto;fontSource=https%3A%2F%2Ffonts.googleapis.com%2Fcss%3Ffamily%3DRoboto;fontSize=12;fontStyle=1;horizontal=1;fillColor=light-dark(#FFC9F6,#8A3C7B);fontColor=default;" vertex="1" parent="1">
          <mxGeometry x="470" y="630" width="170" height="120" as="geometry" />
        </mxCell>
        <mxCell id="V9lEAtq_63Y-f6BwwbYo-68" style="edgeStyle=orthogonalEdgeStyle;rounded=0;orthogonalLoop=1;jettySize=auto;html=1;fontFamily=Roboto;fontSource=https%3A%2F%2Ffonts.googleapis.com%2Fcss%3Ffamily%3DRoboto;fontSize=12;fontColor=default;fontStyle=1;horizontal=1;endArrow=block;endFill=0;" edge="1" parent="1" source="V9lEAtq_63Y-f6BwwbYo-44" target="V9lEAtq_63Y-f6BwwbYo-51">
          <mxGeometry relative="1" as="geometry" />
        </mxCell>
        <mxCell id="V9lEAtq_63Y-f6BwwbYo-84" style="edgeStyle=orthogonalEdgeStyle;rounded=0;orthogonalLoop=1;jettySize=auto;html=1;fontFamily=Roboto;fontSource=https%3A%2F%2Ffonts.googleapis.com%2Fcss%3Ffamily%3DRoboto;fontSize=12;fontColor=default;fontStyle=1;horizontal=1;dashed=1;dashPattern=8 8;endArrow=open;endFill=0;" edge="1" parent="1" source="V9lEAtq_63Y-f6BwwbYo-44" target="V9lEAtq_63Y-f6BwwbYo-45">
          <mxGeometry relative="1" as="geometry" />
        </mxCell>
        <mxCell id="V9lEAtq_63Y-f6BwwbYo-85" style="edgeStyle=orthogonalEdgeStyle;rounded=0;orthogonalLoop=1;jettySize=auto;html=1;entryX=0;entryY=0.25;entryDx=0;entryDy=0;fontFamily=Roboto;fontSource=https%3A%2F%2Ffonts.googleapis.com%2Fcss%3Ffamily%3DRoboto;fontSize=12;fontColor=default;fontStyle=1;horizontal=1;exitX=1;exitY=0.25;exitDx=0;exitDy=0;endArrow=classic;endFill=1;" edge="1" parent="1" source="V9lEAtq_63Y-f6BwwbYo-44" target="V9lEAtq_63Y-f6BwwbYo-43">
          <mxGeometry relative="1" as="geometry" />
        </mxCell>
        <mxCell id="V9lEAtq_63Y-f6BwwbYo-44" value="&lt;p style=&quot;margin:0px;margin-top:4px;text-align:center;&quot;&gt;&lt;b&gt;AudispdListener&lt;/b&gt;&lt;/p&gt;&lt;hr size=&quot;1&quot; style=&quot;border-style:solid;&quot;&gt;&lt;p style=&quot;margin:0px;margin-left:4px;&quot;&gt;&lt;br&gt;&lt;/p&gt;&lt;hr size=&quot;1&quot; style=&quot;border-style:solid;&quot;&gt;&lt;p style=&quot;margin:0px;margin-left:4px;&quot;&gt;&lt;span style=&quot;font-weight: normal;&quot;&gt;- load_event_handlers()&lt;/span&gt;&lt;/p&gt;&lt;p style=&quot;margin:0px;margin-left:4px;&quot;&gt;&lt;span style=&quot;font-weight: normal;&quot;&gt;+ listen()&lt;/span&gt;&lt;/p&gt;" style="verticalAlign=top;align=left;overflow=fill;html=1;whiteSpace=wrap;rounded=1;fillStyle=solid;strokeColor=default;swimlaneFillColor=none;fontFamily=Roboto;fontSource=https%3A%2F%2Ffonts.googleapis.com%2Fcss%3Ffamily%3DRoboto;fontSize=12;fontStyle=1;horizontal=1;fillColor=light-dark(#FFC9F6,#8A3C7B);fontColor=default;" vertex="1" parent="1">
          <mxGeometry x="110" y="630" width="150" height="120" as="geometry" />
        </mxCell>
        <mxCell id="V9lEAtq_63Y-f6BwwbYo-45" value="&lt;p style=&quot;margin:0px;margin-top:4px;text-align:center;&quot;&gt;&lt;b&gt;Event&lt;/b&gt;&lt;/p&gt;&lt;hr size=&quot;1&quot; style=&quot;border-style:solid;&quot;&gt;&lt;p style=&quot;margin:0px;margin-left:4px;&quot;&gt;&lt;br&gt;&lt;/p&gt;&lt;hr size=&quot;1&quot; style=&quot;border-style:solid;&quot;&gt;&lt;p style=&quot;margin:0px;margin-left:4px;&quot;&gt;&lt;br&gt;&lt;/p&gt;" style="verticalAlign=top;align=left;overflow=fill;html=1;whiteSpace=wrap;rounded=1;fillStyle=solid;strokeColor=default;swimlaneFillColor=none;fontFamily=Roboto;fontSource=https%3A%2F%2Ffonts.googleapis.com%2Fcss%3Ffamily%3DRoboto;fontSize=12;fontStyle=1;horizontal=1;fillColor=light-dark(#FFC9F6,#8A3C7B);fontColor=default;" vertex="1" parent="1">
          <mxGeometry x="290" y="770" width="160" height="90" as="geometry" />
        </mxCell>
        <mxCell id="V9lEAtq_63Y-f6BwwbYo-78" style="edgeStyle=orthogonalEdgeStyle;rounded=0;orthogonalLoop=1;jettySize=auto;html=1;fontFamily=Roboto;fontSource=https%3A%2F%2Ffonts.googleapis.com%2Fcss%3Ffamily%3DRoboto;fontSize=12;fontColor=default;fontStyle=1;horizontal=1;endArrow=diamond;endFill=1;" edge="1" parent="1" source="V9lEAtq_63Y-f6BwwbYo-46" target="V9lEAtq_63Y-f6BwwbYo-45">
          <mxGeometry relative="1" as="geometry" />
        </mxCell>
        <mxCell id="V9lEAtq_63Y-f6BwwbYo-46" value="&lt;p style=&quot;margin:0px;margin-top:4px;text-align:center;&quot;&gt;Log&lt;/p&gt;&lt;hr size=&quot;1&quot; style=&quot;border-style:solid;&quot;&gt;&lt;p style=&quot;margin:0px;margin-left:4px;&quot;&gt;&lt;span style=&quot;font-weight: normal;&quot;&gt;+ as_string : str&lt;/span&gt;&lt;/p&gt;&lt;p style=&quot;margin:0px;margin-left:4px;&quot;&gt;&lt;span style=&quot;font-weight: normal;&quot;&gt;+ attributes : dict&lt;/span&gt;&lt;/p&gt;&lt;hr size=&quot;1&quot; style=&quot;border-style:solid;&quot;&gt;&lt;p style=&quot;margin:0px;margin-left:4px;&quot;&gt;&lt;span style=&quot;font-weight: normal;&quot;&gt;- &lt;u&gt;clean_string(s : str) : str&lt;/u&gt;&lt;/span&gt;&lt;/p&gt;&lt;p style=&quot;margin:0px;margin-left:4px;&quot;&gt;&lt;span style=&quot;font-weight: normal;&quot;&gt;- &lt;u&gt;parse_params(s : str) : str&lt;/u&gt;&lt;/span&gt;&lt;/p&gt;&lt;p style=&quot;margin:0px;margin-left:4px;&quot;&gt;&lt;span style=&quot;font-weight: normal;&quot;&gt;+ get_type() : str&lt;/span&gt;&lt;/p&gt;" style="verticalAlign=top;align=left;overflow=fill;html=1;whiteSpace=wrap;rounded=1;fillStyle=solid;strokeColor=default;swimlaneFillColor=none;fontFamily=Roboto;fontSource=https%3A%2F%2Ffonts.googleapis.com%2Fcss%3Ffamily%3DRoboto;fontSize=12;fontStyle=1;horizontal=1;fillColor=light-dark(#FFC9F6,#8A3C7B);fontColor=default;" vertex="1" parent="1">
          <mxGeometry x="290" y="910" width="160" height="140" as="geometry" />
        </mxCell>
        <mxCell id="V9lEAtq_63Y-f6BwwbYo-50" value="&lt;p style=&quot;margin:0px;margin-top:4px;text-align:center;&quot;&gt;&lt;i&gt;&amp;lt;&amp;lt;Interface&amp;gt;&amp;gt;&lt;/i&gt;&lt;/p&gt;&lt;p style=&quot;margin:0px;margin-top:4px;text-align:center;&quot;&gt;&amp;lt;&amp;lt;Utility&amp;gt;&amp;gt;&lt;/p&gt;&lt;p style=&quot;margin:0px;margin-top:4px;text-align:center;&quot;&gt;&lt;b&gt;Notifier&lt;/b&gt;&lt;/p&gt;&lt;hr size=&quot;1&quot; style=&quot;border-style:solid;&quot;&gt;&lt;p style=&quot;margin:0px;margin-left:4px;&quot;&gt;&lt;br&gt;&lt;/p&gt;&lt;hr size=&quot;1&quot; style=&quot;border-style:solid;&quot;&gt;&lt;p style=&quot;margin:0px;margin-left:4px;&quot;&gt;&lt;span style=&quot;font-weight: normal;&quot;&gt;+ &lt;/span&gt;&lt;u style=&quot;font-weight: normal;&quot;&gt;notify(sender : str, message : str)&lt;/u&gt;&lt;/p&gt;" style="verticalAlign=top;align=left;overflow=fill;html=1;whiteSpace=wrap;rounded=1;fillStyle=solid;strokeColor=default;swimlaneFillColor=none;fontFamily=Roboto;fontSource=https%3A%2F%2Ffonts.googleapis.com%2Fcss%3Ffamily%3DRoboto;fontSize=12;fontStyle=1;horizontal=1;fillColor=light-dark(#FFC9F6,#8A3C7B);fontColor=default;" vertex="1" parent="1">
          <mxGeometry x="720" y="625" width="210" height="130" as="geometry" />
        </mxCell>
        <mxCell id="V9lEAtq_63Y-f6BwwbYo-51" value="&lt;p style=&quot;margin:0px;margin-top:4px;text-align:center;&quot;&gt;&lt;b&gt;&lt;i&gt;Subject&lt;/i&gt;&lt;/b&gt;&lt;/p&gt;&lt;hr size=&quot;1&quot; style=&quot;border-style:solid;&quot;&gt;&lt;p style=&quot;margin:0px;margin-left:4px;&quot;&gt;&lt;br&gt;&lt;/p&gt;&lt;hr size=&quot;1&quot; style=&quot;border-style:solid;&quot;&gt;&lt;p style=&quot;margin:0px;margin-left:4px;&quot;&gt;&lt;span style=&quot;font-weight: normal;&quot;&gt;+ add_observer(o : Observer)&lt;/span&gt;&lt;/p&gt;&lt;p style=&quot;margin:0px;margin-left:4px;&quot;&gt;&lt;span style=&quot;font-weight: normal;&quot;&gt;&lt;i&gt;- notify_observers(s : Subject)&lt;/i&gt;&lt;/span&gt;&lt;/p&gt;" style="verticalAlign=top;align=left;overflow=fill;html=1;whiteSpace=wrap;rounded=1;fillStyle=solid;swimlaneFillColor=none;fontFamily=Roboto;fontSource=https%3A%2F%2Ffonts.googleapis.com%2Fcss%3Ffamily%3DRoboto;fontSize=12;fontStyle=1;horizontal=1;fillColor=light-dark(#FFC9F6,#8A3C7B);strokeColor=default;" vertex="1" parent="1">
          <mxGeometry x="97.5" y="470" width="175" height="110" as="geometry" />
        </mxCell>
        <mxCell id="V9lEAtq_63Y-f6BwwbYo-73" style="edgeStyle=orthogonalEdgeStyle;rounded=0;orthogonalLoop=1;jettySize=auto;html=1;fontFamily=Roboto;fontSource=https%3A%2F%2Ffonts.googleapis.com%2Fcss%3Ffamily%3DRoboto;fontSize=12;fontColor=default;fontStyle=1;horizontal=1;endArrow=diamond;endFill=0;" edge="1" parent="1" source="V9lEAtq_63Y-f6BwwbYo-52" target="V9lEAtq_63Y-f6BwwbYo-51">
          <mxGeometry relative="1" as="geometry" />
        </mxCell>
        <mxCell id="V9lEAtq_63Y-f6BwwbYo-52" value="&lt;p style=&quot;margin:0px;margin-top:4px;text-align:center;&quot;&gt;&lt;i&gt;&amp;lt;&amp;lt;Interface&amp;gt;&amp;gt;&lt;/i&gt;&lt;br&gt;&lt;b&gt;Observer&lt;/b&gt;&lt;/p&gt;&lt;hr size=&quot;1&quot; style=&quot;border-style:solid;&quot;&gt;&lt;br&gt;&lt;hr size=&quot;1&quot; style=&quot;border-style:solid;&quot;&gt;&lt;p style=&quot;margin:0px;margin-left:4px;&quot;&gt;&lt;span style=&quot;font-weight: normal;&quot;&gt;+ handle(s : Subject)&lt;/span&gt;&lt;/p&gt;" style="verticalAlign=top;align=left;overflow=fill;html=1;whiteSpace=wrap;rounded=1;fillStyle=solid;strokeColor=default;swimlaneFillColor=none;fontFamily=Roboto;fontSource=https%3A%2F%2Ffonts.googleapis.com%2Fcss%3Ffamily%3DRoboto;fontSize=12;fontStyle=1;horizontal=1;fillColor=light-dark(#FFC9F6,#8A3C7B);fontColor=default;" vertex="1" parent="1">
          <mxGeometry x="490" y="470" width="130" height="110" as="geometry" />
        </mxCell>
        <mxCell id="V9lEAtq_63Y-f6BwwbYo-57" value="&lt;p style=&quot;margin:0px;margin-top:4px;text-align:center;&quot;&gt;&lt;i&gt;&amp;lt;&amp;lt;Interface&amp;gt;&amp;gt;&lt;/i&gt;&lt;/p&gt;&lt;p style=&quot;margin:0px;margin-top:4px;text-align:center;&quot;&gt;&lt;i&gt;&amp;lt;&amp;lt;Utility&amp;gt;&amp;gt;&lt;/i&gt;&lt;br&gt;&lt;b&gt;Plugin&lt;/b&gt;&lt;/p&gt;&lt;hr size=&quot;1&quot; style=&quot;border-style:solid;&quot;&gt;&lt;p style=&quot;margin:0px;margin-left:4px;&quot;&gt;&lt;br&gt;&lt;/p&gt;&lt;hr size=&quot;1&quot; style=&quot;border-style:solid;&quot;&gt;&lt;p style=&quot;margin:0px;margin-left:4px;&quot;&gt;&lt;span style=&quot;font-weight: normal;&quot;&gt;+ &lt;u&gt;init_args_parser(subparser : argparse._SubParsersAction)&lt;/u&gt;&lt;br&gt;+ &lt;u&gt;handle_command(args : argparse.Namespace)&lt;/u&gt;&lt;/span&gt;&lt;/p&gt;" style="verticalAlign=top;align=left;overflow=fill;html=1;whiteSpace=wrap;rounded=1;fillStyle=solid;strokeColor=default;swimlaneFillColor=none;fontFamily=Roboto;fontSource=https%3A%2F%2Ffonts.googleapis.com%2Fcss%3Ffamily%3DRoboto;fontSize=12;fontStyle=1;horizontal=1;fillColor=light-dark(#FFC9F6,#8A3C7B);fontColor=default;" vertex="1" parent="1">
          <mxGeometry x="-265" y="870" width="340" height="150" as="geometry" />
        </mxCell>
        <mxCell id="V9lEAtq_63Y-f6BwwbYo-59" value="Hived" style="html=1;whiteSpace=wrap;rounded=1;fillStyle=solid;strokeColor=default;align=center;verticalAlign=middle;swimlaneFillColor=none;fontFamily=Roboto;fontSource=https%3A%2F%2Ffonts.googleapis.com%2Fcss%3Ffamily%3DRoboto;fontSize=12;fontStyle=1;horizontal=1;fillColor=light-dark(#FFC9F6,#8A3C7B);fontColor=default;" vertex="1" parent="1">
          <mxGeometry x="-150" y="648" width="110" height="50" as="geometry" />
        </mxCell>
        <mxCell id="V9lEAtq_63Y-f6BwwbYo-61" style="edgeStyle=orthogonalEdgeStyle;rounded=0;orthogonalLoop=1;jettySize=auto;html=1;fontFamily=Roboto;fontSource=https%3A%2F%2Ffonts.googleapis.com%2Fcss%3Ffamily%3DRoboto;fontSize=12;fontColor=default;fontStyle=1;horizontal=1;endArrow=classic;endFill=1;" edge="1" parent="1" source="V9lEAtq_63Y-f6BwwbYo-60" target="V9lEAtq_63Y-f6BwwbYo-57">
          <mxGeometry relative="1" as="geometry" />
        </mxCell>
        <mxCell id="V9lEAtq_63Y-f6BwwbYo-90" style="edgeStyle=orthogonalEdgeStyle;rounded=0;orthogonalLoop=1;jettySize=auto;html=1;fontFamily=Roboto;fontSource=https%3A%2F%2Ffonts.googleapis.com%2Fcss%3Ffamily%3DRoboto;fontSize=12;fontColor=default;fontStyle=1;horizontal=1;" edge="1" parent="1" source="V9lEAtq_63Y-f6BwwbYo-60" target="V9lEAtq_63Y-f6BwwbYo-88">
          <mxGeometry relative="1" as="geometry" />
        </mxCell>
        <mxCell id="V9lEAtq_63Y-f6BwwbYo-60" value="Hivectl" style="html=1;whiteSpace=wrap;rounded=1;fillStyle=solid;strokeColor=default;align=center;verticalAlign=middle;swimlaneFillColor=none;fontFamily=Roboto;fontSource=https%3A%2F%2Ffonts.googleapis.com%2Fcss%3Ffamily%3DRoboto;fontSize=12;fontStyle=1;horizontal=1;fillColor=light-dark(#FFC9F6,#8A3C7B);fontColor=default;" vertex="1" parent="1">
          <mxGeometry x="-150" y="760" width="110" height="50" as="geometry" />
        </mxCell>
        <mxCell id="V9lEAtq_63Y-f6BwwbYo-62" value="dynamically loads" style="text;html=1;align=center;verticalAlign=middle;resizable=0;points=[];autosize=1;strokeColor=none;fillColor=none;fontFamily=Roboto;fontSource=https%3A%2F%2Ffonts.googleapis.com%2Fcss%3Ffamily%3DRoboto;fontSize=12;fontColor=default;fontStyle=1;horizontal=1;" vertex="1" parent="1">
          <mxGeometry x="-80" y="820" width="120" height="30" as="geometry" />
        </mxCell>
        <mxCell id="V9lEAtq_63Y-f6BwwbYo-63" style="edgeStyle=orthogonalEdgeStyle;rounded=0;orthogonalLoop=1;jettySize=auto;html=1;fontFamily=Roboto;fontSource=https%3A%2F%2Ffonts.googleapis.com%2Fcss%3Ffamily%3DRoboto;fontSize=12;fontColor=default;fontStyle=1;horizontal=1;dashed=1;dashPattern=8 8;endArrow=open;endFill=0;" edge="1" parent="1" source="V9lEAtq_63Y-f6BwwbYo-59">
          <mxGeometry relative="1" as="geometry">
            <mxPoint x="110" y="673" as="targetPoint" />
          </mxGeometry>
        </mxCell>
        <mxCell id="V9lEAtq_63Y-f6BwwbYo-64" value="launches and feeds" style="text;html=1;align=center;verticalAlign=middle;resizable=0;points=[];autosize=1;strokeColor=none;fillColor=none;fontFamily=Roboto;fontSource=https%3A%2F%2Ffonts.googleapis.com%2Fcss%3Ffamily%3DRoboto;fontSize=12;fontColor=default;fontStyle=1;horizontal=1;" vertex="1" parent="1">
          <mxGeometry x="-30" y="648" width="130" height="30" as="geometry" />
        </mxCell>
        <mxCell id="V9lEAtq_63Y-f6BwwbYo-66" style="edgeStyle=orthogonalEdgeStyle;rounded=0;orthogonalLoop=1;jettySize=auto;html=1;fontFamily=Roboto;fontSource=https%3A%2F%2Ffonts.googleapis.com%2Fcss%3Ffamily%3DRoboto;fontSize=12;fontColor=default;fontStyle=1;horizontal=1;" edge="1" parent="1" source="V9lEAtq_63Y-f6BwwbYo-65" target="V9lEAtq_63Y-f6BwwbYo-59">
          <mxGeometry relative="1" as="geometry" />
        </mxCell>
        <mxCell id="V9lEAtq_63Y-f6BwwbYo-65" value="Audispd" style="html=1;whiteSpace=wrap;rounded=1;fillStyle=solid;strokeColor=default;align=center;verticalAlign=middle;swimlaneFillColor=none;fontFamily=Roboto;fontSource=https%3A%2F%2Ffonts.googleapis.com%2Fcss%3Ffamily%3DRoboto;fontSize=12;fontStyle=1;horizontal=1;fillColor=light-dark(#FFC9F6,#8A3C7B);fontColor=default;" vertex="1" parent="1">
          <mxGeometry x="-370" y="648" width="110" height="50" as="geometry" />
        </mxCell>
        <mxCell id="V9lEAtq_63Y-f6BwwbYo-67" value="relays logs to" style="text;html=1;align=center;verticalAlign=middle;resizable=0;points=[];autosize=1;strokeColor=none;fillColor=none;fontFamily=Roboto;fontSource=https%3A%2F%2Ffonts.googleapis.com%2Fcss%3Ffamily%3DRoboto;fontSize=12;fontColor=default;fontStyle=1;horizontal=1;" vertex="1" parent="1">
          <mxGeometry x="-255" y="648" width="90" height="30" as="geometry" />
        </mxCell>
        <mxCell id="V9lEAtq_63Y-f6BwwbYo-86" value="&lt;div&gt;dynamically loads&lt;/div&gt;" style="text;html=1;align=center;verticalAlign=middle;resizable=0;points=[];autosize=1;strokeColor=none;fillColor=none;fontFamily=Roboto;fontSource=https%3A%2F%2Ffonts.googleapis.com%2Fcss%3Ffamily%3DRoboto;fontSize=12;fontColor=default;fontStyle=1;horizontal=1;" vertex="1" parent="1">
          <mxGeometry x="310" y="630" width="120" height="30" as="geometry" />
        </mxCell>
        <mxCell id="V9lEAtq_63Y-f6BwwbYo-89" style="edgeStyle=orthogonalEdgeStyle;rounded=0;orthogonalLoop=1;jettySize=auto;html=1;fontFamily=Roboto;fontSource=https%3A%2F%2Ffonts.googleapis.com%2Fcss%3Ffamily%3DRoboto;fontSize=12;fontColor=default;fontStyle=1;horizontal=1;" edge="1" parent="1" source="V9lEAtq_63Y-f6BwwbYo-88" target="V9lEAtq_63Y-f6BwwbYo-65">
          <mxGeometry relative="1" as="geometry" />
        </mxCell>
        <mxCell id="V9lEAtq_63Y-f6BwwbYo-88" value="Auditd" style="html=1;whiteSpace=wrap;rounded=1;fillStyle=solid;strokeColor=default;align=center;verticalAlign=middle;swimlaneFillColor=none;fontFamily=Roboto;fontSource=https%3A%2F%2Ffonts.googleapis.com%2Fcss%3Ffamily%3DRoboto;fontSize=12;fontStyle=1;horizontal=1;fillColor=light-dark(#FFC9F6,#8A3C7B);fontColor=default;" vertex="1" parent="1">
          <mxGeometry x="-370" y="760" width="110" height="50" as="geometry" />
        </mxCell>
        <mxCell id="V9lEAtq_63Y-f6BwwbYo-91" value="configures" style="text;html=1;align=center;verticalAlign=middle;resizable=0;points=[];autosize=1;strokeColor=none;fillColor=none;fontFamily=Roboto;fontSource=https%3A%2F%2Ffonts.googleapis.com%2Fcss%3Ffamily%3DRoboto;fontSize=12;fontColor=default;fontStyle=1;horizontal=1;" vertex="1" parent="1">
          <mxGeometry x="-240" y="755" width="80" height="30" as="geometry" />
        </mxCell>
      </root>
    </mxGraphModel>
  </diagram>
</mxfile>
